<svg height="512" width="371" xmlns="http://www.w3.org/2000/svg"><path clip-rule="evenodd" d="m146.2230835 466.035675h76.0881958l-10.3529053 45.964325h-55.5183258zm-21.1371994-281.285675c3.962822 69.1298523 21.5601273 155.5174255 51.7342606 255.7828674 5.2170258 2.6134644 10.1716614 2.5134277 14.8929596 0 30.1644135-100.2323608 47.7621307-186.598175 51.7302704-255.7173004 13.0566253-248.815567-131.1100388-241.815567-118.3574906-.065567zm31.4890823-184.75s-88.8192368 33.616375-82.4261932 162.9110565c6.3928375 129.2943573 94.7368469 277.5524292 94.7368469 277.5524292-54.3865127-48.2533722-134.9411316-198.5757446-136.4940452-287.0341492-.5582409-78.4293365 52.8404426-144.2006683 124.1833915-153.4293365zm-141.2155056 164.7808838c12.9823818 131.2855225 146.8900299 280.7515259 136.1987762 270.9471741-29.8172702-25.7163697-130.2202872-146.7963868-149.0881156-260.2539826-18.867115-113.4565811 76.5397205-152.7547531 76.5397205-152.7547531-55.3807697 37.5478363-69.8661222 92.4942322-63.6503811 142.0615616zm204.4461422 269.5096435c7.2859497-15.1810303 70.2706299-149.5830688 76.2930298-271.3795166 6.3931275-129.2946777-82.4260864-162.9110107-82.4260864-162.9110107 8.2799683.3517456 26.7112427 5.7277222 44.1088867 14.0200195 17.397583 8.2913818 78.8762817 46.0667725 80.0733643 139.4093018-1.0200806 58.1097412-28.4729614 140.8713379-62.6079712 204.4998169 34.5765991-53.0253296 73.3728638-125.5 80.0625-193.1482544 6.215332-49.5673218-8.2695923-104.5137329-63.6503296-142.0615845 0 0 95.4063721 39.2981567 76.5396118 152.7547607-18.8677368 113.4575806-119.4511414 234.657959-149.2685242 260.3743287z" fill-rule="evenodd"/></svg>