<svg fill="none" height="15" viewBox="0 0 15 15" width="15" xmlns="http://www.w3.org/2000/svg"><g fill="#151515"><path d="m4.33959 6c-.27615 0-.5-.22386-.5-.5s.22385-.5.5-.5c.27614 0 .5.22386.5.5s-.22386.5-.5.5z"/><path clip-rule="evenodd" d="m9.30414.827471c-.18251.167141-.32709.333709-.4341.471689-.64315-.19464-1.32498-.29916-2.03045-.29916-2.17709-.000001-3.82647 1.0917-4.72516 2.40516-.44769.65431-.71993 1.37944-.76593 2.06939-.03659.54886.07076 1.09408.36687 1.54619-.30625.50153-.48428 1.0868-.5937 1.63963-.145222.73377.44651 1.33963 1.12952 1.33963.46461 0 .83173-.2718 1.04821-.57353.28919-.40304.76132-.76331 1.32359-1.02365.39363-.18226.81378-.30725 1.21694-.36548.01991 1.08734.90756 1.96266 1.99965 1.96266.29644 0 .56275-.12899.74587-.3339.25379.4168.41454.8714.41454 1.3339 0 .7091-.37731 1.4371-.87751 2h-.12249v-.5c0-.8284-.67158-1.5-1.5-1.5h-1c-.27615 0-.5.2239-.5.5v1c0 .8284.67157 1.5 1.5 1.5h1.83959c3.31282 0 5.66042-2.6884 5.66042-6 0-1.77701-.7943-3.37649-1.8676-4.58569l1.5607-1.56076c.1522-.15218.1899-.38466.0937-.57716l-.4472.22361c.4472-.22361.4473-.22334.4472-.22361l-.0006-.00109-.0006-.00119-.0013-.00267-.0033-.00645-.0093-.01718c-.0073-.0133-.017-.03023-.0291-.05027-.0243-.04003-.0588-.09274-.1046-.15379-.0914-.121872-.2294-.278816-.4236-.434184-.3947-.315812-1.0034-.60956592-1.8748-.609566-.9153-.00000008-1.59795.426824-2.03546.827471zm1.77806 2.222779 1.5894-1.58942c-.025-.02309-.0522-.0467-.0819-.0704-.2302-.18418-.6216-.39043-1.2501-.39043-.5847 0-1.0373.26939-1.36009.56496-.16063.14709-.28238.29502-.36333.40547-.04022.05488-.06964.09951-.08809.12878-.00921.01461-.01562.0253-.01923.03142l-.00329.00565c-.11968.21422-.3773.31005-.608.22582-.64121-.23413-1.33409-.3621-2.05798-.3621-1.82292 0-3.17353.9083-3.89985 1.96984-.36481.53319-.56132 1.08931-.59345 1.57123-.032.48002.09792.85645.34685 1.10538.18091.1809.19607.46919.03513.66807-.30624.37845-.50372.92407-.62562 1.54-.00675.03409.00139.06445.02589.09246.02642.03021.06944.05302.12265.05302.05482 0 .1494-.0362.23572-.15649.41568-.57936 1.04305-1.03659 1.71592-1.34814.51748-.23961 1.08314-.40303 1.63676-.46621v-1.52916c0-.27614.22385-.5.5-.5.27614 0 .5.22386.5.5l-.00001 2.5c0 .55228.44772 1 1 1l.00001-2.74223c0-.27614.22385-.5.5-.5.27614 0 .5.22386.5.5l-.00001 2.09393c.60826.66717 1.16041 1.59035 1.16041 2.6483 0 .6769-.22623 1.3183-.55101 1.8706 2.10362-.5058 3.55102-2.4421 3.55102-4.8706 0-1.6282-.808-3.13289-1.9178-4.24264-.0937-.09377-.1464-.22095-.1464-.35355 0-.13261.0527-.25979.1464-.35356zm-2.01313-1.15782c.43748.24209.43739.24226.43729.24242zm-2.56908 11.10757h.5v-.5c0-.2761-.22386-.5-.5-.5h-.5v.5c0 .2761.22385.5.5.5z" fill-rule="evenodd"/></g></svg>